<svg width="33" height="33" viewBox="0 0 33 33" fill="none" xmlns="http://www.w3.org/2000/svg">
<circle cx="16.5" cy="16.5002" r="16.5" fill="#2D2D2D"/>
<path d="M13.214 21.21C14.366 20.214 15.272 19.398 15.932 18.762C16.604 18.114 17.162 17.442 17.606 16.746C18.05 16.05 18.272 15.354 18.272 14.658C18.272 13.938 18.098 13.374 17.75 12.966C17.414 12.558 16.88 12.354 16.148 12.354C15.44 12.354 14.888 12.582 14.492 13.038C14.108 13.482 13.904 14.082 13.88 14.838H11.9C11.936 13.47 12.344 12.426 13.124 11.706C13.916 10.974 14.918 10.608 16.13 10.608C17.438 10.608 18.458 10.968 19.19 11.688C19.934 12.408 20.306 13.368 20.306 14.568C20.306 15.432 20.084 16.266 19.64 17.07C19.208 17.862 18.686 18.576 18.074 19.212C17.474 19.836 16.706 20.562 15.77 21.39L14.96 22.11H20.666V23.82H11.918V22.326L13.214 21.21Z" fill="white"/>
</svg>
